<?xml version="1.0" encoding="UTF-8"?>
<svg id="Calque_1" data-name="Calque 1" xmlns="http://www.w3.org/2000/svg" version="1.1" viewBox="0 0 168 32">
  <defs>
    <style>
      .cls-1 {
        fill: #3294d2;
      }

      .cls-1, .cls-2, .cls-3, .cls-4, .cls-5, .cls-6, .cls-7, .cls-8, .cls-9, .cls-10, .cls-11, .cls-12, .cls-13, .cls-14, .cls-15, .cls-16, .cls-17, .cls-18, .cls-19, .cls-20, .cls-21, .cls-22, .cls-23, .cls-24, .cls-25, .cls-26, .cls-27, .cls-28, .cls-29, .cls-30, .cls-31, .cls-32, .cls-33, .cls-34, .cls-35, .cls-36, .cls-37, .cls-38, .cls-39, .cls-40, .cls-41, .cls-42, .cls-43, .cls-44, .cls-45, .cls-46, .cls-47, .cls-48, .cls-49 {
        stroke-width: 0px;
      }

      .cls-2 {
        fill: #3a3a3a;
      }

      .cls-3 {
        fill: #7bc1eb;
      }

      .cls-4 {
        fill: #514f4e;
      }

      .cls-5 {
        fill: #32a5de;
      }

      .cls-6 {
        fill: #3e8fce;
      }

      .cls-7 {
        fill: #fefefe;
      }

      .cls-8 {
        fill: #fbfbfb;
      }

      .cls-9 {
        fill: #3296d3;
      }

      .cls-10 {
        fill: #28ace3;
      }

      .cls-11 {
        fill: #c0d2ee;
      }

      .cls-12 {
        fill: #3e3632;
      }

      .cls-13 {
        fill: #e5f0fb;
      }

      .cls-14 {
        fill: #feffff;
      }

      .cls-15 {
        fill: #4b4948;
      }

      .cls-16 {
        fill: #379dc8;
      }

      .cls-17 {
        fill: #3799d5;
      }

      .cls-18 {
        fill: #3693d0;
      }

      .cls-19 {
        fill: #696665;
      }

      .cls-20 {
        fill: #555352;
      }

      .cls-21 {
        fill: #349cd7;
      }

      .cls-22 {
        fill: #34a8e0;
      }

      .cls-23 {
        fill: #5b5b5c;
      }

      .cls-24 {
        fill: #38a2ce;
      }

      .cls-25 {
        fill: #2d9ad6;
      }

      .cls-26 {
        fill: #676463;
      }

      .cls-27 {
        fill: #2d9dd8;
      }

      .cls-28 {
        fill: #aecbec;
      }

      .cls-29 {
        fill: #382b24;
      }

      .cls-30 {
        fill: #26ace3;
      }

      .cls-31 {
        fill: #27ace3;
      }

      .cls-32 {
        fill: #eff6fd;
      }

      .cls-33 {
        fill: #30a9e1;
      }

      .cls-34 {
        fill: #4b4949;
      }

      .cls-35 {
        fill: #3c3c3b;
      }

      .cls-36 {
        fill: #3d3d3c;
      }

      .cls-37 {
        fill: #d7e3f5;
      }

      .cls-38 {
        fill: #615e5e;
      }

      .cls-39 {
        fill: #3d91cf;
      }

      .cls-40 {
        fill: #41a7d3;
      }

      .cls-41 {
        fill: #2cace2;
      }

      .cls-42 {
        fill: #71bdea;
      }

      .cls-43 {
        fill: #7bc1ec;
      }

      .cls-44 {
        fill: #368fce;
      }

      .cls-45 {
        fill: #3a95d2;
      }

      .cls-46 {
        fill: #3197d4;
      }

      .cls-47 {
        fill: #3a93d1;
      }

      .cls-48 {
        fill: #41b0e5;
      }

      .cls-49 {
        fill: #fff;
      }
    </style>
  </defs>
  <g>
    <path class="cls-49" d="M16.2.6c4,0,7.9,0,11.9,0,.8,0,.9.1.9.9,0,9.7,0,19.5,0,29.2,0,1.1-.5.9-1.1.9-9,0-18,0-27,0,0-6.1,0-12.1,0-18.2.2-.2.4-.3.7-.3.8.1,1.2.9,1.7,1.5.3.3.5.6.8,1,.9,1.3,1.9,2.4,3.7,2.4,1.6,0,1.9-.5,1.3-2,0-.2,0-.3,0-.5,1.3-.8,1.4-1.1.2-2.1-.6-.5-1.6-.6-1.9-1.5,0-.4,0-.7,0-1.1.5-1,1.2-1.5,2.3-1.3,1,.4.7,1.4,1,2.1.6,1.3,1.1,2.8,3,2.6.1,0,.2-.2.4-.3.4-.8,0-1.8.5-2.6.6-.4.7.1,1,.5.4.9.4,2.1,1.8,2,.6-.4.8-1.1,1-1.8.9-3.1-.2-5.9-1.6-8.6-.3-.7-.9-1.3-1-2.1,0-.3,0-.5.3-.8Z"/>
    <path class="cls-49" d="M1.6,13.5c-.3,0-.5,0-.8,0,0-4,0-8,0-11.9,0-.8.1-.9.9-.9,4.8,0,9.6,0,14.4,0v.7c-.6.4-.9.9-1.2,1.5-.4.6-.9,1.3-1.4,1.9-.4.5-.7,1-1.1,1.5-.5.7-.8,1.5-1.1,2.2-.7,1.1,0,2.6-.9,3.6-.7-.6.1-1.7-.8-2.2-.6-2.2-2-3.8-4.1-4.7-.2,2.2-.8,4.7,2.1,5.9,0,.3,0,.7,0,1-.8.7-1.7.4-2.5.4-1.2,0-2.5,0-3.5.9Z"/>
    <path class="cls-9" d="M22.9,12c1.8-.6,3.7,0,5.7-.9-1.4,3.9-3.5,6.6-7.1,7.9-.5.2-1,.4-1.5,0-.6-.7.3-1,.5-1.5.2-.5.5-.9.9-1.3.3-.3.7-.6,1.1-.9,1.1-.6,1.5-1.5,1.3-2.7-.3-.2-.7-.2-.9-.5Z"/>
    <path class="cls-2" d="M18,23.9c-1.3,2.5-.6,4.9.3,7.3h-5.1c-.4-.5-.2-1,0-1.5.9-2.2,1.7-4.3,3-6.3,1.3-.8,1.5-.8,1.7.4Z"/>
    <path class="cls-41" d="M16.6,23.7c-1.4,2.4-2.4,4.9-3.3,7.5-.5,0-1.5.3-1.1-.6.9-2.2.1-4.1-.6-6-.1-.4,0-.5.4-.4.5.6.9.5,1-.3,0-.5,0-1,0-1.5-.1-.6-.6-1.1-.3-1.8h0c.2-.2.4-.2.7-.1.7.5.3,1.3.6,1.9.2,0,.3,0,.5-.1.1,0,.3,0,.4,0,.3,0,.5.2.8.3.2,0,.4.2.5.4.2.3.3.6.5.9Z"/>
    <path class="cls-33" d="M1.6,13.5c-.5-.7,0-.9.6-1.1,1.8-.5,3.6-.4,5.4-.3.7.5,1.6.6,2.2,1.3.5.5,1.2,1,.9,1.8-.3.8-1.1.3-1.7.4-.6.2-1.1.1-1.7,0-.3-.1-.6-.3-.9-.4-1.1-.3-2.3-.2-3.4-.3l-1.4-1.4Z"/>
    <path class="cls-25" d="M13.3,4.6c.4-.6.8-1.2,1.3-1.9.4-.2.7.1.8.4,1.4,2.8,2.1,5.8,3.4,8.7,0,.2,0,.5-.1.7,0,.7-.4,1.3-1,1.8-1.6-.1-1.7-1.7-2.4-2.7-.5-.9-.2-2-.5-2.9-.3-1.4-1.4-2.6-1.5-4.1Z"/>
    <path class="cls-21" d="M7.6,11c-1.6.3-3.1-1.4-2.8-3.6.1-.9.2-1.8.2-2.8,3,.8,4.7,2.6,4.6,5.2-1-.1-1.5.5-2,1.2Z"/>
    <path class="cls-27" d="M18.7,12.5c-1.6-3.2-2.3-6.7-4.1-9.8.6-.4,0-2,1.6-1.3,1.3,2.3,2.7,4.6,3,7.3.2,1.3.1,2.6-.5,3.8Z"/>
    <path class="cls-44" d="M22.6,15.6l-1.1.7c-.4.3-.9.5-1.3.7-.8.2-1.2,1.8-2.1,1-.7-.7-.1-1.9.3-2.8.9-1.9,2.5-2.9,4.5-3.2.5,0,1,0,1.5,0-.3,1.3-1,2.4-1.8,3.5Z"/>
    <path class="cls-5" d="M6.5,14.9c.3,0,.6,0,.7.4.5.3,1.3.2,1.8.7.5.3,1.2.4.9,1.2-.2.7-.7,1.2-1.5,1.3-2,.3-3.6-.6-4.8-2.8.7-1.4,1.9-.7,2.9-.8Z"/>
    <path class="cls-45" d="M23.2,6c.9-.4,1.8-.8,2.9-1.2,0,2.2-.6,4-2.1,5.5-.5.5-1.1,1-1.9.7-.8-.3-.2-1.2-.3-1.7.2-.8.6-1.5,1.2-2,.5-.4.3-.8.1-1.2Z"/>
    <path class="cls-1" d="M11,8.1c.3-.8.6-1.5,1.2-2.1.9,0,1.1.7,1.4,1.3,1.2,2.3,1,4.7.7,7.2-.1,0-.2,0-.3.1-1.5-2-2.7-4-3-6.5Z"/>
    <path class="cls-18" d="M11,8.1c1,1.1.8,2.7,1.8,3.8.6.7.8,1.8,1.2,2.7-2,.4-2.5,0-3.6-2.6,0-1.4-.2-2.8.6-4Z"/>
    <path class="cls-6" d="M20.9,20.5c.7-1.2,1.7-1.5,2.8-.5.8.7,1.4,1.6,2.1,2.5-1.5.7-2.8.8-4.2.1-.5-.2-1.3-.5-.8-1.4.8-.2.2-.5,0-.8Z"/>
    <path class="cls-48" d="M8.6,20.3c.5,0,1,0,1.1.7,0,.5-.2.8-.6,1-.7.6-3.7.5-4.4,0-.2-.2-.2-.4-.1-.6.4-1,2.5-2.3,3.6-2.2,1,0,.8.6.4,1.2,0,0-.1,0-.1,0,0,.1,0,.2.1,0Z"/>
    <path class="cls-39" d="M23.2,6c.8.1,1.4.7.6,1.2-.9.5-1.1,1.6-2,2.1-.7.1-.8,1.7-1.7.9-.9-.7-.4-1.7.1-2.5.7-1,1.8-1.4,3-1.6Z"/>
    <path class="cls-46" d="M14.4,14.5c.2-2.4-.1-4.8-1.1-7.1-.2-.5-.4-1.1-1-1.4.2-.6.6-1,1.1-1.4.8,1.2,1.6,2.5,1.8,4,0,1,.1,1.9-.4,2.8-.3,1,.3,2.2-.4,3.1Z"/>
    <path class="cls-4" d="M16.6,23.7c-.5.1-.6-.3-.7-.6.2-.4,0-.9.4-1.3,0-.1.2-.2.4-.2.7,0,1.2,0,1.6-.8.3-.7.8-1.3,2.1-1.2-1.1,1.3-1.4,2.9-2.2,4.2-.4-1.3-.9-.7-1.4-.1Z"/>
    <path class="cls-12" d="M14.5,22.4c-.1.2-.3.5-.4.7-1.2-.6-.2-1.6-.5-2.3,0-.3,0-.6.2-.8.6-.2.2-.7.3-1-.4-.6,0-1.3-.3-1.8,0,0-.1-.2,0-.3-.1-.4-.3-.8.4-.8.8,1.2.4,2.7,1.2,3.9,0,.9-.4,1.7-.7,2.5Z"/>
    <path class="cls-29" d="M15.4,22.7c-.3,0-.6,0-.7-.3,0-.9.2-1.7.7-2.5.1-.1.3-.2.4-.3.4-.9,0-1.8.2-2.7,0-.3-.2-.9.5-.8h0c.3,1.8.4,3.6,0,5.4-.2.6-.4,1.1-1,1.4Z"/>
    <path class="cls-23" d="M12.6,20.6c.3.6.4,1.2.3,1.8-1-.9-2-1.9-3.4-3.1,1.8-.3,2.2,1,3.1,1.3Z"/>
    <path class="cls-20" d="M13.7,19.9v.8c-.2,0-.3.1-.4,0-.2,0-.5,0-.7,0-.3-1-.8-1.9-1.3-2.8-.1-.2-.3-.6,0-.8.3-.2.6,0,.8.3.6.9,1.1,1.8,1.6,2.6Z"/>
    <path class="cls-22" d="M6.5,14.9c-.9.5-2.1,0-2.9.8-.2-.3-.4-.6-.6-.9,0-.1,0-.3,0-.3,1.2-.1,2.4-.4,3.5.4Z"/>
    <path class="cls-17" d="M15.5,11.7c.9.7,1.2,2,2.2,2.6-1.4.4-2.2-.3-2.3-2.2-.2-.2-.1-.3,0-.4Z"/>
    <path class="cls-15" d="M16.2,21.6c.6-1.9.3-3.8.3-5.6.8,1.9.3,3.7,0,5.6,0,0,0,0,0,0-.1.1-.3.1-.4,0Z"/>
    <path class="cls-28" d="M15.5,11.7c0,.1,0,.2,0,.4-.2-.2-.4-.5-.7-.7-.2-1,0-1.9.4-2.8.7,1,.1,2.1.4,3.1Z"/>
    <path class="cls-24" d="M15.4,19.9c0,.9-.1,1.8-.7,2.5,0,0-.1,0-.1,0,0,0-.1,0-.1,0-.3-1,0-1.8.7-2.5,0,0,.1,0,.2,0Z"/>
    <path class="cls-15" d="M16.5,16c-.8,1.1.2,2.5-.7,3.5,0-1.1,0-2.2,0-3.2,0-.5.2-.8.7-.3Z"/>
    <path class="cls-13" d="M9,16c-.7,0-1.3-.1-1.8-.7.6,0,1.2-.2,1.8.2,0,.1,0,.3,0,.4Z"/>
    <path class="cls-42" d="M11.9,24.2c-.1.1-.3.3-.4.4-.3-.4-.6-.8-1.1-1.5.9.3,1.4.4,1.5,1.2Z"/>
    <path class="cls-37" d="M20.1,17.1c.2-.7.7-.8,1.3-.7-.2.5-.5.8-1,1.1-.1-.1-.2-.2-.3-.3Z"/>
    <path class="cls-11" d="M20.9,20.5c.4.2.7.3,1.1.5-.4.4-.8.2-1.2.3,0-.3,0-.5,0-.8Z"/>
    <path class="cls-34" d="M14,16c-.3.2-.3.5-.4.8-.3-.4-.7-.9-.2-1.3.2-.2.6,0,.6.5Z"/>
    <path class="cls-34" d="M13.7,17c.6.5.3,1.2.3,1.8-.4-.6-.4-1.2-.3-1.8Z"/>
    <path class="cls-47" d="M22.6,15.6c0-1.4,1.2-2.4,1.8-3.5,0,1.5-.2,2.9-1.8,3.5Z"/>
    <path class="cls-40" d="M13.3,20.7c.1,0,.2,0,.3,0,.1.8-.4,1.7.4,2.4-.3.4-.6.3-.7-.2,0-.7,0-1.5,0-2.2Z"/>
    <path class="cls-16" d="M16.2,21.6c.1,0,.2,0,.4,0,0,.6-.3,1.1-.7,1.5-.1-.1-.3-.3-.4-.4.2-.4.5-.7.7-1.1Z"/>
    <path class="cls-3" d="M8.6,20.3c-.2.5-.5.7-1.1.6,0-.8.6-.6,1.1-.6,0,0,0,0,0,0Z"/>
  </g>
  <g>
    <path class="cls-49" d="M73.6,11.8c13.5,0,27.1,0,40.6,0,1.1,0,1.5,0,1.5,1.4,0,5.6,0,11.3,0,17,0,.7,0,1.2-1,1.2-27.6,0-55.2,0-82.8,0-.5,0-1.1.3-1.1-.7,0-6.1,0-12.2,0-18.4,0-.3,0-.4.4-.4.3.3.5.7.7,1.1,1.5,3.8,2.8,7.6,4.3,11.4.3.7.4,1.7,1.5,1.7,1.1,0,1.3-.9,1.6-1.7.8-1.8,1.3-3.7,2-5.5.2-.4.3-1,.8-1.1.6,0,.8.6,1,1.1.7,2,1.4,3.9,2.2,5.8.3.7.5,1.4,1.4,1.4,1,0,1.2-.8,1.5-1.5,1.6-4.1,2.9-8.2,4.6-12.3.2-.2.4-.3.6-.5h11.9c.6.6.5,1.4.5,2.2,0,3.4,0,6.9,0,10.3,0,.9,0,2,1.5,1.6.6-.6.4-1.4.4-2.2,0-.8-.2-1.9.9-2.3,1.2-.4,2.4-.3,3.3.7.8.9,1.5,1.8,2.4,2.6.3.2.5.5.7.8.6.5,1.5,1,2.1.4.6-.6-.5-1-.8-1.5-.2-.3-.5-.5-.7-.8q-1.6-2,.3-3.7c2.2-1.9,1.7-5.5-.8-6.9-.6-.3-1.5-.3-1.5-1.2Z"/>
    <path class="cls-31" d="M73.6,11.8c1.3.7,2.9,1.1,3.6,2.6,1.3,2.7.3,5.3-2.9,7.1,1.2,1.3,2.4,2.6,3.5,3.9.2.3.6.5.3.9-.1.2-.5.2-.8.2-1.3.1-2.4,0-3.3-1.3-.7-1-1.7-1.8-2.4-2.8-.8-1-1.8-.9-2.8-.7-1.1.2-.5,1.3-.6,1.9-.1.9,0,1.8-.1,2.6-.4.3-.9.1-1.4.2-.9.1-1.3-.2-1.3-1.2,0-4.1,0-8.1,0-12.2,0-1,.5-1.1,1.3-1.1,2.1,0,4.3.2,6.4-.2h.4Z"/>
    <path class="cls-7" d="M34.4,11.8h6.8c.1.1.2.3.2.5-.6,2.9-1.8,5.6-2.7,8.4-.2.5-.4,1.1-1,1-.6,0-.8-.7-1-1.2-.9-2.7-1.9-5.4-2.5-8.2,0-.2.1-.4.2-.5Z"/>
    <path class="cls-7" d="M43.1,11.8h6.8c.2.2.3.5.3.8-.5,2.8-1.8,5.3-2.5,8-.1.5-.4,1.1-1,1.1-.6,0-.8-.6-1-1.1-1-2.8-1.9-5.5-2.8-8.3,0-.2,0-.4.1-.5Z"/>
    <path class="cls-43" d="M73.3,11.8c-1.8.8-3.8.3-5.6.3-1.6,0-2,.5-2,2,.1,3.2,0,6.5,0,9.7,0,2.7-.3,2.5,2.5,2.5-2.4.8-2.8.6-2.8-1.8,0-4.2,0-8.4,0-12.6h7.9Z"/>
    <path class="cls-26" d="M34.4,11.8c0,.1,0,.2,0,.4-.8.7-1.9.4-2.8.7-.4-.3-.4-.7-.3-1.1h3.2Z"/>
    <path class="cls-19" d="M50,12.5c0-.2,0-.5,0-.7h3.6c-.1.1-.2.2-.3.4-1,.7-2.1.6-3.2.4Z"/>
    <path class="cls-38" d="M43.1,11.8c.1,0,.2.2.1.3-.6.6-1.2.6-1.9,0,0-.1,0-.2,0-.4h1.8Z"/>
    <path class="cls-35" d="M41.3,12.2c.6,0,1.3,0,1.9,0,1.2,3.2,2.3,6.3,3.6,9.9,1.1-3.4,2.1-6.4,3.1-9.5,1-.6,2.1-.3,3.2-.4-1.6,4.5-3.2,9-4.8,13.6-.3.8-.9.8-1.6.8-.8,0-1.3-.1-1.6-1-.9-2.5-1.9-5-2.9-7.7-1,2.7-1.9,5.1-2.8,7.6-.3.8-.7,1.1-1.6,1-.8,0-1.3,0-1.6-1-1.5-4.3-3.1-8.5-4.6-12.7.6-1.5,1.9-.4,2.8-.7,1.1,3.2,2.2,6.3,3.4,9.8,1.3-3.5,2.4-6.6,3.5-9.8Z"/>
    <path class="cls-30" d="M94.2,25.8c0,1.4,0,2.7,0,4,0,1.1-.7,1-1.4,1.1-.8,0-1.2-.2-1.2-1.1,0-4.1,0-8.2,0-12.4,0-.4-.2-1.1.5-1.1.7,0,1.5-.4,1.9.4.2.4.2.7.8.4,2.9-1.5,5.3-1.1,6.9.9,1.6,2,1.6,5.1,0,7.1-1.5,1.9-4.2,2.3-7,1-.1,0-.2,0-.6-.1Z"/>
    <path class="cls-36" d="M55.4,22.3c.8,1.9,2.4,2.4,4.6,1.7.4-.2.8-.8,1.4-.2.4.4,1.1.8,1.1,1.3,0,.6-.7.8-1.2,1-2.2,1.1-5.5.9-7.1-.6-1.9-1.7-2.2-3.8-1.5-6.1.8-2.6,3.4-3.9,6.5-3.3,2.7.5,4.3,2.5,4.2,5.3,0,.9-.4,1.1-1.2,1.1-2.3,0-4.5,0-6.8,0Z"/>
    <path class="cls-10" d="M85.7,22.3c-.9,0-1.8,0-2.7,0-.4,0-.9-.2-1,.4-.1.5.3.8.6,1,1.3.9,2.7.9,3.9.2,1.3-.7,1.9.2,2.2.9.4.9-.7,1.1-1.2,1.3-4.6,2.1-8.8-.6-8.6-5.4.1-3,2.5-5,5.7-4.9,3.1,0,5.1,2,5.2,5,0,1-.3,1.6-1.4,1.5-.9,0-1.8,0-2.7,0Z"/>
    <path class="cls-31" d="M115,21.4c0,3.2-2.1,5.3-5.5,5.2-3.2,0-5.4-2.2-5.4-5.4,0-3.1,2.3-5.3,5.5-5.3,3.2,0,5.3,2.2,5.3,5.4Z"/>
    <path class="cls-14" d="M71,19c-.5,0-1.1,0-1.6,0-.9,0-1.2-.4-1.1-1.2.1-1-.5-2.6.3-3,1.4-.7,3.1-.4,4.7-.1.9.1,1.4.8,1.5,1.8.2,1.5-.5,2.4-2,2.5-.6,0-1.2,0-1.8,0,0,0,0,0,0,0Z"/>
    <path class="cls-14" d="M100.2,21.3c0,1.6-1.3,2.9-2.9,2.9-1.6,0-2.8-1.3-2.8-2.8,0-1.7,1.2-2.9,2.9-2.8,1.6,0,2.8,1.2,2.8,2.8Z"/>
    <path class="cls-8" d="M60.7,20.1c-1.6,0-2.9,0-4.3,0-.3,0-.6.1-.8-.3-.1-.3.2-.5.4-.7,1.3-1.4,3.5-1,4.7,1Z"/>
    <path class="cls-32" d="M84.5,20.2c-.2,0-.4,0-.5,0-.7-.2-1.8.5-1.9-.5,0-1,1.1-1.2,2-1.4.4-.1,1,0,1.4,0,.7.2,1.7.6,1.5,1.5-.2.8-1.1.3-1.7.4-.2,0-.5,0-.7,0Z"/>
    <path class="cls-14" d="M109.5,18.5c1.6,0,2.8,1.1,2.8,2.8,0,1.6-1,2.9-2.6,3-1.8,0-2.8-1-2.9-2.8,0-1.8,1-2.9,2.6-2.9Z"/>
  </g>
</svg>